<?xml version="1.0" encoding="UTF-8" standalone="no"?>
<svg
   xmlns:dc="http://purl.org/dc/elements/1.1/"
   xmlns:cc="http://creativecommons.org/ns#"
   xmlns:rdf="http://www.w3.org/1999/02/22-rdf-syntax-ns#"
   xmlns:svg="http://www.w3.org/2000/svg"
   xmlns="http://www.w3.org/2000/svg"
   xmlns:sodipodi="http://sodipodi.sourceforge.net/DTD/sodipodi-0.dtd"
   xmlns:inkscape="http://www.inkscape.org/namespaces/inkscape"
   style="enable-background:new 0 0 512 512;"
   version="1.1"
   viewBox="0 0 512 512"
   xml:space="preserve"
   id="svg4705"
   sodipodi:docname="devsite-dark.svg"
   inkscape:version="0.92.1 r15371"><metadata
     id="metadata4711"><rdf:RDF><cc:Work
         rdf:about=""><dc:format>image/svg+xml</dc:format><dc:type
           rdf:resource="http://purl.org/dc/dcmitype/StillImage" /><dc:title></dc:title></cc:Work></rdf:RDF></metadata><defs
     id="defs4709" /><sodipodi:namedview
     pagecolor="#ffffff"
     bordercolor="#666666"
     borderopacity="1"
     objecttolerance="10"
     gridtolerance="10"
     guidetolerance="10"
     inkscape:pageopacity="0"
     inkscape:pageshadow="2"
     inkscape:window-width="1979"
     inkscape:window-height="1458"
     id="namedview4707"
     showgrid="false"
     inkscape:zoom="1.3037281"
     inkscape:cx="494.95561"
     inkscape:cy="182.33097"
     inkscape:window-x="780"
     inkscape:window-y="31"
     inkscape:window-maximized="0"
     inkscape:current-layer="svg4705" /><g
     id="g4703"><g
       id="_x32_0-Search" /><g
       id="_x31_9-Web_Page" /><g
       id="_x31_8-Wifi" /><g
       id="_x31_7-Hotspot" /><g
       id="_x31_6-Satelite" /><g
       id="_x31_5-Receiver" /><g
       id="_x31_4-Receiver" /><g
       id="_x31_3-Receiver" /><g
       id="_x31_2-Ethernet" /><g
       id="_x31_1-Code" /><g
       id="_x31_0-Homegroup" /><g
       id="_x30_9-Sharing_Option" /><g
       id="_x30_8-Data" /><g
       id="_x30_7-Connectivity" /><g
       id="_x30_6-Computer" /><g
       id="_x30_5-Laptop" /><g
       id="_x30_4-Mobile" /><g
       id="_x30_3-Network" /><g
       id="_x30_2-Click" /><g
       id="_x30_1-Website"><g
         id="g4700"><path
           d="M469,256c0-117.453-95.586-212.996-212.993-213c-0.005,0-0.009,0-0.014,0      C138.515,43.004,43,138.62,43,256c0,117.584,95.719,213,213,213C373.466,469,469,373.398,469,256z M69.459,269h90.993      c1.117,26.012,5.586,51.417,13.193,75.725h-82.22C79.074,321.908,71.34,296.247,69.459,269z M91.425,167.275h82.22      c-7.607,24.308-12.075,49.713-13.193,75.725H69.459C71.34,215.753,79.074,190.092,91.425,167.275z M442.541,243h-90.993      c-1.117-26.012-5.586-51.417-13.193-75.725h82.22C432.926,190.092,440.66,215.753,442.541,243z M325.532,243H269v-75.725h41.968      C319.354,191.437,324.301,216.877,325.532,243z M269,141.275V90.264c12.422,15.898,22.92,33,31.39,51.011H269z M243,141.275      h-31.39c8.47-18.012,18.968-35.113,31.39-51.011V141.275z M243,167.275V243h-56.532c1.231-26.123,6.178-51.563,14.564-75.725      H243z M186.468,269H243v75.725h-41.968C192.646,320.563,187.699,295.123,186.468,269z M243,370.725v51.011      c-12.422-15.898-22.92-33-31.39-51.011H243z M269,370.725h31.39c-8.47,18.012-18.968,35.113-31.39,51.011V370.725z M269,344.725      V269h56.532c-1.231,26.123-6.178,51.563-14.564,75.725H269z M351.548,269h90.993c-1.88,27.247-9.615,52.908-21.965,75.725      h-82.22C345.962,320.417,350.43,295.012,351.548,269z M403.569,141.275H328.85c-10.45-24.849-24.351-48.251-41.446-69.624      C334.376,79.628,375.438,105.173,403.569,141.275z M224.595,71.651C207.5,93.025,193.6,116.427,183.15,141.275h-74.718      C136.562,105.173,177.624,79.628,224.595,71.651z M108.431,370.725h74.718c10.45,24.849,24.351,48.251,41.446,69.624      C177.624,432.372,136.562,406.827,108.431,370.725z M287.405,440.349c17.095-21.374,30.995-44.776,41.446-69.624h74.718      C375.438,406.827,334.376,432.372,287.405,440.349z"
           style="fill:#2175AA;"
           id="path4698" /></g></g></g><path
     style="fill:#cccccc;stroke-width:1.08474576"
     d="M 242.88154,467.79544 C 157.79631,463.42917 82.45917,405.65521 54.795294,323.55733 29.026929,247.08474 48.527123,163.63585 105.55654,106.3303 146.00976,65.681197 198.79419,43.81328 256.45912,43.81328 c 80.03864,0 152.99061,45.001574 189.09579,116.64674 7.75667,15.39191 11.76836,26.07839 16.03374,42.71133 15.08927,58.84084 4.57508,120.65485 -29.02143,170.62003 -20.16339,29.98728 -46.46224,53.64003 -77.98211,70.13585 -35.44277,18.54887 -70.28457,25.99368 -111.70357,23.86821 z m -18.44068,-27.65408 c 0,-0.37887 -3.24155,-5.04246 -7.20344,-10.36353 -9.52421,-12.79161 -19.73026,-29.83231 -27.65099,-46.16794 l -6.44309,-13.28814 H 145.7582 c -21.90196,0 -37.38514,0.41133 -37.38514,0.99317 0,1.64561 21.14039,23.25883 29.00323,29.65191 21.93534,17.8351 50.14972,31.70101 76.73996,37.71377 10.34978,2.34035 10.32461,2.33679 10.32461,1.46076 z m 83.52542,-4.22996 c 22.49847,-6.41689 43.60354,-17.13726 62.38995,-31.69112 9.6247,-7.45629 33.06768,-30.72191 33.06768,-32.81753 0,-0.69717 -13.22236,-1.081 -37.23919,-1.081 h -37.23919 l -8.26452,16.54238 c -8.1877,16.3886 -19.28846,34.47517 -28.53324,46.48945 -2.63541,3.42492 -4.79166,6.53038 -4.79166,6.90104 0,1.02615 6.83301,-0.41379 20.61017,-4.34322 z m -64,-40.09812 V 370.32175 H 227.6951 c -8.94916,0 -16.27119,0.25625 -16.27119,0.56945 0,1.16104 8.02168,16.44673 12.7778,24.34869 6.50108,10.80111 17.4834,26.06492 18.75372,26.06492 0.59596,0 1.01085,-10.46262 1.01085,-25.49153 z m 30.96834,18.79465 c 8.66556,-11.77133 25.43844,-40.51802 25.43844,-43.59841 0,-0.37828 -7.07796,-0.68777 -15.72881,-0.68777 h -15.72881 v 25.49153 c 0,14.02034 0.24507,25.49153 0.54461,25.49153 0.29953,0 2.7631,-3.01359 5.47457,-6.69688 z M 173.45781,344.36116 c 0,-0.55629 -1.41948,-6.53595 -3.15439,-13.28813 -3.90849,-15.21162 -7.32854,-35.2002 -8.22535,-48.07331 -0.37407,-5.36949 -0.90477,-10.86102 -1.17934,-12.20339 l -0.4992,-2.44068 H 114.7051 69.010677 l 0.726669,7.81867 c 1.662461,17.88743 8.212793,41.23372 16.752088,59.70676 l 4.387526,9.49152 h 41.29042 c 24.80867,0 41.29043,-0.40373 41.29043,-1.01144 z m 69.9661,-37.49703 v -37.9661 l -28.47458,-0.2892 -28.47457,-0.2892 0.0212,5.71293 c 0.05,13.47748 5.75666,44.63046 11.53247,62.95601 l 2.65681,8.42954 21.36935,-0.29395 21.36937,-0.29393 z m 70.20539,31.45762 c 5.80448,-18.94675 10.19842,-42.13089 12.07808,-63.72881 l 0.54282,-6.23729 h -28.66737 -28.66739 v 38.53141 38.53141 l 21.35996,-0.29412 21.35997,-0.29412 z m 110.51726,0.31956 c 9.52981,-18.87846 18.3218,-50.38534 18.32671,-65.67549 l 10e-4,-4.61017 H 397.01723 351.5597 l -0.5983,5.15255 c -0.32907,2.83389 -0.88785,8.56949 -1.24172,12.74576 -0.95453,11.26462 -4.52665,30.90759 -8.16611,44.90512 -1.76792,6.79951 -3.21441,12.77917 -3.21441,13.28814 0,0.50896 18.54213,0.92538 41.20472,0.92538 h 41.20473 z M 161.78762,231.4743 c 0.99613,-14.10465 4.28513,-33.84967 8.03208,-48.21931 1.56313,-5.99464 3.07657,-12.24171 3.3632,-13.88239 l 0.52115,-2.98305 H 132.55922 91.414402 l -4.413287,8.94915 c -8.416779,17.06733 -15.577624,42.04613 -17.262331,60.21529 l -0.730318,7.8763 45.987384,-0.28308 45.98738,-0.28308 z m 81.92135,-26.30509 -0.28506,-38.23729 -21.38191,-0.29397 -21.3819,-0.29398 -2.78524,9.13135 c -6.02245,19.74454 -11.4001,49.25672 -11.4001,62.56301 v 5.36817 h 28.75963 28.75965 z m 81.98625,33.08475 c -2.05886,-23.82528 -5.6515,-43.40893 -11.24336,-61.28814 l -3.30781,-10.57627 h -21.11431 -21.1143 v 38.50848 38.50847 h 28.61251 28.61252 z m 116.4164,-2.90938 c -1.48359,-17.55081 -7.92394,-40.54937 -16.49988,-58.92113 l -4.68381,-10.0339 h -41.29438 c -22.71191,0 -41.29115,0.3661 -41.2872,0.81356 0.004,0.44746 1.69989,7.52023 3.76878,15.71727 3.84092,15.21798 8.13979,41.1851 8.15036,49.23188 0.003,2.46102 0.31096,6 0.68384,7.86441 l 0.67797,3.38983 h 45.5829 45.5829 z M 184.30527,140.28461 c 0,-2.1891 13.84938,-28.8903 20.56903,-39.6565 3.70277,-5.932562 9.62002,-14.672986 13.14944,-19.423168 3.52942,-4.750183 6.41712,-8.954151 6.41712,-9.342153 0,-0.388002 -4.48887,0.267586 -9.97528,1.456862 -34.94934,7.575896 -69.30684,27.289729 -94.84884,54.422879 -14.37551,15.27103 -17.44013,13.69787 26.68426,13.69787 26.17041,0 38.00427,-0.35989 38.00427,-1.15579 z m 59.66101,-24.33574 c 0,-14.02034 -0.40967,-25.491522 -0.91038,-25.491522 -1.22603,0 -12.08487,15.181742 -18.79284,26.274282 -5.22093,8.63352 -12.83915,22.9568 -12.83915,24.13932 0,0.3132 7.32203,0.56945 16.27119,0.56945 h 16.27118 z m 56.40678,24.77167 c 0,-3.37525 -21.46234,-39.00296 -28.64519,-47.551328 l -2.73441,-3.254237 -0.0391,25.762715 -0.039,25.76271 h 15.72881 c 8.65085,0 15.72881,-0.32394 15.72881,-0.71986 z m 103.05085,-0.25837 c 0,-1.66562 -20.5866,-22.72757 -28.67221,-29.33427 C 357.4555,96.995301 336.50295,85.423629 315.67353,78.500217 303.95007,74.603499 288.41919,70.786948 287.49485,71.5756 c -0.222,0.189412 2.42212,4.098931 5.87582,8.687823 9.70324,12.892584 19.35158,28.774557 27.77464,45.719347 l 7.6838,15.45763 h 37.2974 c 21.43423,0 37.2974,-0.41606 37.2974,-0.97823 z"
     id="path4722"
     inkscape:connector-curvature="0" /></svg>