<?xml version="1.0" encoding="UTF-8" standalone="no"?>
<svg
   xmlns:dc="http://purl.org/dc/elements/1.1/"
   xmlns:cc="http://creativecommons.org/ns#"
   xmlns:rdf="http://www.w3.org/1999/02/22-rdf-syntax-ns#"
   xmlns:svg="http://www.w3.org/2000/svg"
   xmlns="http://www.w3.org/2000/svg"
   xmlns:sodipodi="http://sodipodi.sourceforge.net/DTD/sodipodi-0.dtd"
   xmlns:inkscape="http://www.inkscape.org/namespaces/inkscape"
   enable-background="new 0 0 128 128"
   height="128px"
   id="Layer_1"
   version="1.1"
   viewBox="0 0 128 128"
   width="128px"
   xml:space="preserve"
   sodipodi:docname="feedback-dark.svg"
   inkscape:version="0.92.1 r15371"><metadata
     id="metadata5349"><rdf:RDF><cc:Work
         rdf:about=""><dc:format>image/svg+xml</dc:format><dc:type
           rdf:resource="http://purl.org/dc/dcmitype/StillImage" /><dc:title></dc:title></cc:Work></rdf:RDF></metadata><defs
     id="defs5347" /><sodipodi:namedview
     pagecolor="#ffffff"
     bordercolor="#666666"
     borderopacity="1"
     objecttolerance="10"
     gridtolerance="10"
     guidetolerance="10"
     inkscape:pageopacity="0"
     inkscape:pageshadow="2"
     inkscape:window-width="1833"
     inkscape:window-height="1309"
     id="namedview5345"
     showgrid="false"
     inkscape:zoom="3.6875"
     inkscape:cx="116.02734"
     inkscape:cy="126.88479"
     inkscape:window-x="0"
     inkscape:window-y="0"
     inkscape:window-maximized="0"
     inkscape:current-layer="Layer_1" /><path
     d="M104,16c1.484,0,2.945,0.414,4.203,1.195C110.547,18.641,112,21.25,112,24v64  c0,2.75-1.453,5.359-3.789,6.805C106.945,95.586,105.484,96,104,96c-1.234,0-2.477-0.297-3.578-0.844L59.578,74.734  c-1.133-0.563-2.352-0.844-3.578-0.844c-1.461,0-2.922,0.398-4.203,1.195C49.438,76.547,48,79.117,48,81.891V104  c0,4.414-3.586,8-8,8s-8-3.586-8-8V80c0-4.422-3.578-8-8-8c-4.414,0-8-3.586-8-8V48c0-4.414,3.586-8,8-8h28.219  c1.242,0,2.469-0.289,3.578-0.844l44.617-22.313C101.523,16.297,102.766,16,104,16 M104,8c-2.445,0-4.898,0.563-7.156,1.688  L52.219,32H24c-8.836,0-16,7.164-16,16v16c0,8.836,7.164,16,16,16v24c0,8.836,7.164,16,16,16s16-7.164,16-16V81.891l40.844,20.422  C99.102,103.438,101.555,104,104,104c2.922,0,5.844-0.805,8.414-2.391C117.125,98.695,120,93.547,120,88V24  c0-5.547-2.875-10.695-7.586-13.609C109.844,8.805,106.922,8,104,8L104,8z"
     fill="#546E7A"
     id="path5342" /><path
     style="fill:#999999;fill-opacity:1;stroke-width:0.27118644"
     d="m 35.916319,119.29149 c -3.250705,-0.8516 -5.920182,-2.5854 -8.215323,-5.3358 -1.32545,-1.58836 -2.798736,-4.59727 -3.199897,-6.53518 -0.191678,-0.92596 -0.297485,-6.05035 -0.297485,-14.407716 V 80.042159 L 22.195218,79.743447 C 21.090599,79.579156 19.595684,79.247097 18.873184,79.00554 14.058099,77.395688 9.9341098,72.910611 8.6334945,67.869288 c -0.6333201,-2.454818 -0.6333201,-21.331303 0,-23.786121 1.0629034,-4.119926 4.1647825,-8.063297 7.8663095,-10.00032 3.529915,-1.847217 3.400038,-1.835433 20.229879,-1.835433 H 51.853667 L 74.887348,20.739222 C 87.555874,14.409716 98.571901,9.034825 99.367408,8.7950196 101.72001,8.0858272 104.88591,7.9678392 107.27867,8.500179 c 5.61734,1.2497397 9.8557,5.076186 11.88539,10.730286 l 0.63277,1.762712 v 34.847457 c 0,33.057752 -0.0256,34.931024 -0.49863,36.474577 -1.68454,5.49693 -6.27474,9.855309 -11.73548,11.142789 -2.36265,0.55705 -6.36793,0.38052 -8.511648,-0.37514 C 98.230733,102.79368 88.254779,97.903514 76.882285,92.215813 65.509792,86.528108 56.14369,81.874533 56.068726,81.874533 c -0.07496,0 -0.138416,5.277966 -0.141006,11.728813 -0.0037,9.261804 -0.08854,12.128094 -0.403265,13.627114 -0.988212,4.70684 -4.25136,8.8698 -8.568524,10.93129 -1.252756,0.59821 -2.924425,1.22068 -3.714817,1.38327 -2.123331,0.43678 -5.080423,0.33443 -7.324795,-0.25353 z m 7.774755,-8.10945 c 1.498498,-0.76448 2.969077,-2.28562 3.665701,-3.79174 0.55479,-1.19948 0.580566,-1.71632 0.711246,-14.26153 0.135411,-12.999436 0.136463,-13.018875 0.78259,-14.448659 0.878191,-1.9433 2.8938,-3.72749 4.855088,-4.297651 3.126663,-0.908947 2.360293,-1.219805 26.091135,10.583183 11.857627,5.897617 21.838996,10.797503 22.180826,10.888635 0.34183,0.09113 1.35431,0.162191 2.24995,0.157906 3.10759,-0.01486 6.16208,-2.117497 7.27294,-5.006503 0.52735,-1.371495 0.53952,-2.136282 0.55334,-34.776843 0.016,-37.818858 0.17456,-35.075412 -2.1756,-37.646856 -1.80251,-1.972234 -3.61688,-2.69519 -6.41692,-2.556903 l -1.96259,0.09693 -23.528937,11.791517 -23.528941,11.791518 -16.271186,0.135593 -16.271187,0.135594 -1.366819,0.721491 c -1.75618,0.927024 -3.4267,2.746693 -4.082459,4.446956 -0.473458,1.227588 -0.516823,2.148317 -0.516823,10.973071 v 9.633047 l 0.906466,1.841071 c 1.406711,2.857088 3.367466,4.094989 7.173813,4.529112 3.598705,0.410441 5.558003,1.642438 7.051327,4.433836 0.588036,1.099187 0.59929,1.332895 0.7328,15.218026 0.131569,13.683179 0.152795,14.138889 0.715208,15.355219 1.997743,4.32053 7.058902,6.15591 11.179032,4.05398 z"
     id="path5362"
     inkscape:connector-curvature="0" /></svg>