<?xml version="1.0" encoding="UTF-8" standalone="no"?>
<svg
   xmlns:dc="http://purl.org/dc/elements/1.1/"
   xmlns:cc="http://creativecommons.org/ns#"
   xmlns:rdf="http://www.w3.org/1999/02/22-rdf-syntax-ns#"
   xmlns:svg="http://www.w3.org/2000/svg"
   xmlns="http://www.w3.org/2000/svg"
   xmlns:sodipodi="http://sodipodi.sourceforge.net/DTD/sodipodi-0.dtd"
   xmlns:inkscape="http://www.inkscape.org/namespaces/inkscape"
   viewBox="0 0 32 32"
   version="1.1"
   id="svg14"
   sodipodi:docname="SDKDoc-dark.svg"
   inkscape:version="0.92.1 r15371">
  <metadata
     id="metadata20">
    <rdf:RDF>
      <cc:Work
         rdf:about="">
        <dc:format>image/svg+xml</dc:format>
        <dc:type
           rdf:resource="http://purl.org/dc/dcmitype/StillImage" />
        <dc:title>default_file</dc:title>
      </cc:Work>
    </rdf:RDF>
  </metadata>
  <defs
     id="defs18" />
  <sodipodi:namedview
     pagecolor="#ffffff"
     bordercolor="#666666"
     borderopacity="1"
     objecttolerance="10"
     gridtolerance="10"
     guidetolerance="10"
     inkscape:pageopacity="0"
     inkscape:pageshadow="2"
     inkscape:window-width="2162"
     inkscape:window-height="1489"
     id="namedview16"
     showgrid="false"
     inkscape:zoom="22.03125"
     inkscape:cx="27.824891"
     inkscape:cy="6.9129438"
     inkscape:window-x="239"
     inkscape:window-y="162"
     inkscape:window-maximized="0"
     inkscape:current-layer="svg14" />
  <title
     id="title10">default_file</title>
  <path
     d="M20.75,2H4.35V30h23.3V9Zm4.6,25.7H6.75V4.3h11.7v7h7V27.7Z"
     style="fill:#c5c5c5"
     id="path12" />
  <path
     style="stroke-width:0.06419125"
     d="M 4.3696215,15.990128 V 2.0285308 l 8.2004325,0.00227 8.200433,0.00227 3.418184,3.4781793 3.418184,3.4781794 V 19.47058 29.951726 H 15.988238 4.3696215 Z M 25.488544,19.488552 V 11.272071 H 21.990121 18.491697 V 7.773648 4.2752247 H 12.618198 6.7446979 V 15.990128 27.705032 h 9.3719231 9.371923 z"
     id="path3866"
     inkscape:connector-curvature="0" />
  <text
     xml:space="preserve"
     style="font-style:normal;font-weight:normal;font-size:40px;line-height:1.25;font-family:sans-serif;letter-spacing:0px;word-spacing:0px;fill:#d35f5f;fill-opacity:1;stroke:none;"
     x="7.4558635"
     y="21.395769"
     id="text3870"><tspan
       sodipodi:role="line"
       id="tspan3868"
       x="7.4558635"
       y="21.395769"
       style="font-size:8px;fill:#d35f5f;">SDK</tspan></text>
  <path
     style="fill:#e6e6e6;stroke-width:0.04539007"
     d="M 4.3809194,15.999964 V 2.0652122 l 8.2042556,0.00295 8.204255,0.00295 3.392513,3.4580384 3.392514,3.4580383 3.94e-4,10.4737591 3.95e-4,10.473759 H 15.978082 4.3809194 Z m 21.1063826,3.47234 V 11.234007 H 21.992267 18.497231 V 7.7389711 4.2439356 H 12.619217 6.7412031 V 15.977269 27.710602 h 9.3730499 9.373049 z"
     id="path4677"
     inkscape:connector-curvature="0" />
</svg>
