<svg id="Layer_1" data-name="Layer 1" xmlns="http://www.w3.org/2000/svg" viewBox="0 0 50 40"><title>Artboard 1</title><path d="M26,7.48A12.52,12.52,0,1,1,13.48,20,12.53,12.53,0,0,1,26,7.48M26,6A14,14,0,1,0,40,20,14,14,0,0,0,26,6Z"/><circle cx="21.28" cy="16.37" r="0.71"/><rect x="20.71" y="17.38" width="1.14" height="4.14"/><circle cx="30.48" cy="22.53" r="0.71"/><rect x="29.91" y="17.38" width="1.14" height="4.14"/><path d="M19.56,20l0,0a1.14,1.14,0,0,1-.42.35,1.34,1.34,0,0,1-.51.11,1.05,1.05,0,0,1-.75-.29,1,1,0,0,1-.29-.73,1.07,1.07,0,0,1,.29-.78,1,1,0,0,1,.75-.3,1.26,1.26,0,0,1,.51.11,1,1,0,0,1,.42.35l0,.05.62-.95,0,0a2.32,2.32,0,0,0-1-.57,2.86,2.86,0,0,0-.62-.07,2,2,0,0,0-1.51.62A2.29,2.29,0,0,0,17,21a2.07,2.07,0,0,0,1.51.61,2.21,2.21,0,0,0,.62-.07,2.32,2.32,0,0,0,1.08-.65l0,0Z"/><polygon points="22.33 17.38 22.33 18.4 23.41 18.4 23.41 21.52 24.56 21.52 24.56 18.4 25.64 18.4 25.64 17.38 22.33 17.38"/><path d="M28.36,19.89A1.16,1.16,0,0,0,29,19.5a1.26,1.26,0,0,0,.24-.79,1.18,1.18,0,0,0-.42-1,2.38,2.38,0,0,0-1.41-.32H26.13v4.14h1.14V20.07l.86,1.45h1.35Zm-.31-1.05a.42.42,0,0,1-.15.36.77.77,0,0,1-.48.11h-.15v-1h.17a.75.75,0,0,1,.48.12A.48.48,0,0,1,28.05,18.84Z"/><polygon points="33.44 20.21 34.29 21.52 35.61 21.52 34.15 19.33 35.47 17.38 34.15 17.38 33.44 18.47 32.73 17.38 31.41 17.38 32.74 19.33 31.27 21.52 32.59 21.52 33.44 20.21"/></svg>