<svg id="Layer_1" data-name="Layer 1" xmlns="http://www.w3.org/2000/svg" viewBox="0 0 24 24"><defs><style>.cls-1{fill:#231f20;}.cls-2{fill:none;stroke:#231f20;stroke-miterlimit:10;}</style></defs><title>VSCodeIcon-update</title><path class="cls-1" d="M7.68,9.3A.65.65,0,1,0,7,8.65.65.65,0,0,0,7.68,9.3Z"/><rect class="cls-1" x="7.16" y="9.58" width="1.05" height="3.81"/><path class="cls-1" d="M16.16,13.67a.65.65,0,0,0-.65.65.65.65,0,1,0,1.3,0A.65.65,0,0,0,16.16,13.67Z"/><rect class="cls-1" x="15.63" y="9.58" width="1.05" height="3.81"/><path class="cls-1" d="M6.1,12l0,0a1,1,0,0,1-.39.31,1.11,1.11,0,0,1-.46.11.92.92,0,0,1-.69-.27.89.89,0,0,1-.27-.67,1,1,0,0,1,.26-.72.94.94,0,0,1,.7-.27,1.1,1.1,0,0,1,.47.1.89.89,0,0,1,.38.31l0,.05.57-.87,0,0a2.28,2.28,0,0,0-1-.53A2.52,2.52,0,0,0,5.1,9.5a1.91,1.91,0,0,0-1.39.57,2,2,0,0,0-.55,1.43,2,2,0,0,0,.55,1.42,1.9,1.9,0,0,0,1.39.56,2.26,2.26,0,0,0,.57-.06,2.16,2.16,0,0,0,1-.6l0,0Z"/><polygon class="cls-1" points="8.65 9.58 8.65 10.52 9.65 10.52 9.65 13.4 10.7 13.4 10.7 10.52 11.7 10.52 11.7 9.58 8.65 9.58"/><path class="cls-1" d="M14.2,11.89a1,1,0,0,0,.59-.36,1.11,1.11,0,0,0,.22-.72,1.11,1.11,0,0,0-.38-.93,2.14,2.14,0,0,0-1.3-.3H12.15V13.4h1V12.06L14,13.4h1.25Zm-.28-1a.37.37,0,0,1-.14.33.74.74,0,0,1-.45.11H13.2v-.91h.15a.68.68,0,0,1,.45.11A.46.46,0,0,1,13.92,10.93Z"/><polygon class="cls-1" points="18.88 12.19 19.67 13.4 20.88 13.4 19.53 11.38 20.75 9.58 19.53 9.58 18.89 10.59 18.23 9.58 17.02 9.58 18.24 11.38 16.89 13.4 18.1 13.4 18.88 12.19"/><path class="cls-1" d="M21.35,9.58a.46.46,0,1,0,.47.46A.46.46,0,0,0,21.35,9.58Zm0,.85a.39.39,0,1,1,0-.78.39.39,0,0,1,0,.78Z"/><path class="cls-1" d="M21.57,9.93a.15.15,0,0,0-.17-.15h-.23v.52h.08v-.22h.11l.14.21h.1l-.14-.22A.14.14,0,0,0,21.57,9.93Zm-.08,0c0,.06,0,.08-.1.08h-.14V9.85h.14C21.46,9.85,21.49,9.88,21.49,9.93Z"/><circle class="cls-2" cx="12" cy="12" r="11.5"/></svg>